<svg width="27" height="33" viewBox="0 0 27 33" fill="none" xmlns="http://www.w3.org/2000/svg">
<path fill-rule="evenodd" clip-rule="evenodd" d="M26.7382 16.7187L26.7239 16.7927L26.7143 16.8675C26.1319 21.3935 22.832 25.5401 19.2711 28.7235C17.5359 30.2747 15.8344 31.5124 14.565 32.3623C14.1962 32.6093 13.8654 32.8224 13.5828 33C13.3949 32.882 13.1858 32.7483 12.9584 32.5993C11.8961 31.9037 10.4465 30.8844 8.90395 29.5957C5.76032 26.9694 2.48841 23.4358 1.07715 19.4497L1.05965 19.4003L1.04001 19.3517C0.370802 17.6973 0 15.8792 0 13.9655C0 6.25258 6.04416 0 13.5 0C20.9558 0 27 6.25258 27 13.9655C27 14.9101 26.9097 15.8305 26.7382 16.7187Z" fill="#915944"/>
<path d="M19.3696 14.7931C19.3696 11.6508 16.7417 9.10345 13.5 9.10345C10.2583 9.10345 7.63043 11.6508 7.63043 14.7931C7.63043 17.9354 10.2583 20.4828 13.5 20.4828C16.7417 20.4828 19.3696 17.9354 19.3696 14.7931Z" fill="white"/>
</svg>
