<svg width="20" height="20" viewBox="0 0 20 20" fill="none" xmlns="http://www.w3.org/2000/svg">
<path d="M17.734 15.3533C17.4441 16.023 17.101 16.6393 16.7035 17.206C16.1617 17.9786 15.718 18.5134 15.3761 18.8103C14.8461 19.2978 14.2782 19.5474 13.6701 19.5616C13.2335 19.5616 12.707 19.4374 12.0942 19.1854C11.4793 18.9345 10.9143 18.8103 10.3977 18.8103C9.85579 18.8103 9.27466 18.9345 8.65306 19.1854C8.03052 19.4374 7.52901 19.5687 7.14557 19.5817C6.56242 19.6065 5.98117 19.3498 5.40098 18.8103C5.03067 18.4873 4.56749 17.9336 4.01262 17.1493C3.41729 16.3116 2.92785 15.3403 2.54441 14.2329C2.13376 13.0368 1.9279 11.8786 1.9279 10.7573C1.9279 9.47278 2.20545 8.36493 2.76139 7.43656C3.1983 6.69086 3.77955 6.10262 4.50704 5.6708C5.23452 5.23897 6.02057 5.01891 6.86707 5.00483C7.33025 5.00483 7.93765 5.14811 8.69246 5.42968C9.44514 5.7122 9.92844 5.85548 10.1403 5.85548C10.2987 5.85548 10.8356 5.68795 11.7458 5.35396C12.6065 5.04423 13.3329 4.91598 13.928 4.9665C15.5405 5.09664 16.752 5.73232 17.5577 6.87755C16.1155 7.75138 15.4021 8.97529 15.4163 10.5454C15.4293 11.7683 15.873 12.786 16.7449 13.5941C17.1401 13.9691 17.5814 14.259 18.0724 14.4648C17.9659 14.7736 17.8535 15.0694 17.734 15.3533ZM14.0357 0.800129C14.0357 1.75868 13.6855 2.65368 12.9874 3.48208C12.1451 4.46688 11.1262 5.03595 10.0213 4.94615C10.0072 4.83116 9.99907 4.71013 9.99907 4.58294C9.99907 3.66273 10.3997 2.67793 11.1111 1.87272C11.4662 1.46503 11.9179 1.12604 12.4657 0.855616C13.0123 0.589231 13.5293 0.441914 14.0155 0.416687C14.0297 0.54483 14.0357 0.672994 14.0357 0.800129Z" fill="#212529"/>
</svg>
