<svg width="128" height="128" viewBox="0 0 128 128" fill="none" xmlns="http://www.w3.org/2000/svg">
<path fill-rule="evenodd" clip-rule="evenodd" d="M52.906 47.4904C47.1466 50.2132 42.4624 54.9907 39.7049 60.9309C33.6866 60.2851 29 55.1898 29 49C29 42.3726 34.3726 37 41 37C47.1161 37 52.1636 41.5756 52.906 47.4904Z" fill="#249D65"/>
<path fill-rule="evenodd" clip-rule="evenodd" d="M77.5698 48.8266C80.3289 45.6636 82 41.5269 82 37C82 27.0589 73.9411 19 64 19C54.0589 19 46 27.0589 46 37C46 41.5269 47.6711 45.6636 50.4302 48.8266C54.4172 46.3937 59.0533 45 64 45C68.9467 45 73.5828 46.3937 77.5698 48.8266Z" fill="#249D65"/>
<path fill-rule="evenodd" clip-rule="evenodd" d="M88.2951 60.9309C94.3134 60.2851 99 55.1898 99 49C99 42.3726 93.6274 37 87 37C80.8838 37 75.8364 41.5756 75.094 47.4904C80.8534 50.2132 85.5375 54.9907 88.2951 60.9309Z" fill="#249D65"/>
<path fill-rule="evenodd" clip-rule="evenodd" d="M72 105.657C73.7221 104.323 75.5908 102.762 77.4582 101H84C86.2091 101 88 102.791 88 105V107C88 108.105 87.1046 109 86 109H72V105.657Z" fill="#915944"/>
<path fill-rule="evenodd" clip-rule="evenodd" d="M50.8256 101C52.5908 102.666 54.3573 104.152 56 105.436V109H42.6667C42.0467 109 41.7367 109 41.4824 108.932C40.7922 108.747 40.2531 108.208 40.0681 107.518C40 107.263 40 106.953 40 106.333C40 105.093 40 104.473 40.1363 103.965C40.5062 102.584 41.5844 101.506 42.9647 101.136C43.4734 101 44.0934 101 45.3333 101H50.8256Z" fill="#915944"/>
<path fill-rule="evenodd" clip-rule="evenodd" d="M86.5539 78.3843L86.5296 78.5144L86.5132 78.6459C85.5211 86.6006 79.899 93.8887 73.8322 99.4838C70.876 102.21 67.9772 104.385 65.8144 105.879C65.1861 106.313 64.6226 106.688 64.141 107C63.821 106.793 63.4647 106.558 63.0773 106.296C61.2675 105.073 58.7977 103.282 56.1697 101.017C50.8139 96.4008 45.2395 90.1901 42.8351 83.1843L42.8053 83.0975L42.7719 83.0121C41.6317 80.1043 41 76.9088 41 73.5455C41 59.9894 51.2975 49 64 49C76.7025 49 87 59.9894 87 73.5455C87 75.2056 86.8461 76.8232 86.5539 78.3843Z" fill="#915944"/>
<path d="M74 75C74 69.4772 69.5228 65 64 65C58.4772 65 54 69.4772 54 75C54 80.5228 58.4772 85 64 85C69.5228 85 74 80.5228 74 75Z" fill="white"/>
</svg>
