<svg width="20" height="20" viewBox="0 0 20 20" fill="none" xmlns="http://www.w3.org/2000/svg">
<mask id="mask0_54_141" style="mask-type:luminance" maskUnits="userSpaceOnUse" x="0" y="4" width="8" height="12">
<path d="M0.629173 4.33313H7.17266V15.6665H0.629173V4.33313Z" fill="white"/>
</mask>
<g mask="url(#mask0_54_141)">
<mask id="mask1_54_141" style="mask-type:luminance" maskUnits="userSpaceOnUse" x="0" y="0" width="20" height="20">
<path d="M19.1359 8.25779H10.2095V11.9587H15.3477C14.8686 14.3098 12.8657 15.6596 10.2095 15.6596C7.07443 15.6596 4.54891 13.1342 4.54891 9.99935C4.54891 6.86451 7.07443 4.3392 10.2095 4.3392C11.5594 4.3392 12.7786 4.81815 13.7365 5.60185L16.5233 2.81534C14.8251 1.33498 12.648 0.420654 10.2095 0.420654C4.89724 0.420654 0.63 4.68753 0.63 9.99935C0.63 15.3112 4.89724 19.5781 10.2095 19.5781C14.9993 19.5781 19.3536 16.0949 19.3536 9.99935C19.3536 9.43336 19.2665 8.82378 19.1359 8.25779Z" fill="white"/>
</mask>
<g mask="url(#mask1_54_141)">
<path d="M-0.241219 15.6597V4.33936L7.16112 9.99951L-0.241219 15.6597Z" fill="#FBBC05"/>
</g>
</g>
<mask id="mask2_54_141" style="mask-type:luminance" maskUnits="userSpaceOnUse" x="0" y="0" width="20" height="10">
<path d="M0.629173 0.413391H19.3528V10.0001H0.629173V0.413391Z" fill="white"/>
</mask>
<g mask="url(#mask2_54_141)">
<mask id="mask3_54_141" style="mask-type:luminance" maskUnits="userSpaceOnUse" x="0" y="0" width="20" height="20">
<path d="M19.1359 8.25803H10.2095V11.9589H15.3477C14.8686 14.3101 12.8657 15.6598 10.2095 15.6598C7.07443 15.6598 4.54891 13.1345 4.54891 9.9996C4.54891 6.86475 7.07443 4.33944 10.2095 4.33944C11.5594 4.33944 12.7786 4.8184 13.7365 5.6021L16.5233 2.81559C14.8251 1.33522 12.648 0.420898 10.2095 0.420898C4.89724 0.420898 0.63 4.68777 0.63 9.9996C0.63 15.3115 4.89724 19.5783 10.2095 19.5783C14.9993 19.5783 19.3536 16.0952 19.3536 9.9996C19.3536 9.43361 19.2665 8.82402 19.1359 8.25803Z" fill="white"/>
</mask>
<g mask="url(#mask3_54_141)">
<path d="M-0.241219 4.3393L7.16112 9.99946L10.2091 7.34357L20.6595 5.6455V-0.450073H-0.241219V4.3393Z" fill="#EA4335"/>
</g>
</g>
<mask id="mask4_54_141" style="mask-type:luminance" maskUnits="userSpaceOnUse" x="0" y="0" width="20" height="20">
<path d="M0.629173 0.413391H19.3528V19.5778H0.629173V0.413391Z" fill="white"/>
</mask>
<g mask="url(#mask4_54_141)">
<mask id="mask5_54_141" style="mask-type:luminance" maskUnits="userSpaceOnUse" x="0" y="0" width="20" height="20">
<path d="M19.1359 8.25803H10.2095V11.9589H15.3477C14.8686 14.3101 12.8657 15.6598 10.2095 15.6598C7.07443 15.6598 4.54891 13.1345 4.54891 9.9996C4.54891 6.86475 7.07443 4.33944 10.2095 4.33944C11.5594 4.33944 12.7786 4.8184 13.7365 5.6021L16.5233 2.81559C14.8251 1.33522 12.648 0.420898 10.2095 0.420898C4.89724 0.420898 0.63 4.68777 0.63 9.9996C0.63 15.3115 4.89724 19.5783 10.2095 19.5783C14.9993 19.5783 19.3536 16.0952 19.3536 9.9996C19.3536 9.43361 19.2665 8.82402 19.1359 8.25803Z" fill="white"/>
</mask>
<g mask="url(#mask5_54_141)">
<path d="M-0.241219 15.6597L12.8217 5.6455L16.2616 6.08092L20.6595 -0.450073V20.449H-0.241219V15.6597Z" fill="#34A853"/>
</g>
</g>
<mask id="mask6_54_141" style="mask-type:luminance" maskUnits="userSpaceOnUse" x="5" y="4" width="15" height="16">
<path d="M5.41316 4.33344H19.3533V19.5779H5.41316V4.33344Z" fill="white"/>
</mask>
<g mask="url(#mask6_54_141)">
<mask id="mask7_54_141" style="mask-type:luminance" maskUnits="userSpaceOnUse" x="0" y="0" width="20" height="20">
<path d="M19.1344 8.25803H10.208V11.9589H15.3462C14.8672 14.3101 12.8642 15.6598 10.208 15.6598C7.07293 15.6598 4.54741 13.1345 4.54741 9.9996C4.54741 6.86475 7.07293 4.33944 10.208 4.33944C11.5579 4.33944 12.7771 4.8184 13.735 5.6021L16.5218 2.81559C14.8236 1.33522 12.6465 0.420898 10.208 0.420898C4.89574 0.420898 0.628505 4.68777 0.628505 9.9996C0.628505 15.3115 4.89574 19.5783 10.208 19.5783C14.9978 19.5783 19.3521 16.0952 19.3521 9.9996C19.3521 9.43361 19.265 8.82402 19.1344 8.25803Z" fill="white"/>
</mask>
<g mask="url(#mask7_54_141)">
<path d="M20.6587 20.4492L7.16031 9.99963L5.41859 8.69349L20.6587 4.33948V20.4492Z" fill="#4285F4"/>
</g>
</g>
</svg>
