<svg width="461" height="135" viewBox="0 0 461 135" fill="none" xmlns="http://www.w3.org/2000/svg">
<path d="M394.406 32.4476C402.982 32.4476 409.382 38.4636 409.382 48.1916V53.4396C409.382 92.2236 385.318 117.568 357.67 123.072C353.318 123.968 346.15 121.28 345.766 113.984C345.382 107.584 350.246 103.744 354.598 102.336C373.67 95.9356 388.134 82.3676 388.134 57.1516C388.134 53.3116 387.75 52.6716 382.63 52.6716H354.854C351.654 52.6716 346.662 49.3436 346.662 42.5596C346.662 36.0316 351.91 32.4476 355.366 32.4476H394.406ZM443.43 33.2156C445.862 50.7516 444.838 111.296 443.43 125.504C442.662 130.624 437.286 134.848 431.782 134.336C425.51 133.696 421.798 128.704 422.054 123.584C423.718 104.128 423.974 55.2316 422.054 35.5196C421.286 30.1436 426.278 25.0236 431.398 24.5116C437.286 23.8716 442.662 27.8396 443.43 33.2156Z" fill="#915944"/>
<path d="M287.044 52.5436H269.636V62.9116C269.636 92.8636 259.524 111.68 239.684 122.56C236.228 124.48 229.06 124.224 225.988 118.72C223.172 113.6 225.348 107.072 229.7 104.256C242.884 95.5516 248.004 86.0796 248.132 61.5036V52.5436H233.924C229.06 52.5436 226.5 46.7836 226.5 42.4316C226.5 38.2076 229.444 32.3196 233.924 32.3196H287.044C290.884 32.3196 294.34 37.3116 294.34 42.3036C294.34 46.6556 291.908 52.5436 287.044 52.5436ZM285.892 96.7036L294.724 106.432C298.052 110.528 296.772 117.312 292.548 120.512C287.812 124.224 281.028 122.944 277.7 118.848L268.74 109.12C266.308 106.048 265.54 99.3916 271.044 95.0396C275.524 91.5836 282.308 92.0956 285.892 96.7036ZM290.372 84.6716C285.124 84.6716 282.052 78.7836 282.052 74.4316C282.052 69.4396 285.892 64.4476 290.372 64.4476H303.684C303.428 52.9276 303.044 42.4316 302.404 35.5196C301.636 30.1436 306.628 25.0236 311.748 24.5116C317.636 23.8716 323.012 27.8396 323.78 33.2156C326.212 50.7516 325.188 111.296 323.78 125.504C323.012 130.624 317.636 134.848 312.132 134.336C305.86 133.696 302.148 128.704 302.404 123.584C303.172 114.88 303.556 100.032 303.684 84.6716H290.372Z" fill="#915944"/>
<path d="M161.506 32.4476C170.082 32.4476 176.482 38.4636 176.482 48.1916V53.4396C176.482 92.2236 152.418 117.568 124.77 123.072C120.418 123.968 113.25 121.28 112.866 113.984C112.482 107.584 117.346 103.744 121.698 102.336C140.77 95.9356 155.234 82.3676 155.234 57.1516C155.234 53.3116 154.85 52.6716 149.73 52.6716H121.954C118.754 52.6716 113.762 49.3436 113.762 42.5596C113.762 36.0316 119.01 32.4476 122.466 32.4476H161.506ZM210.53 33.2156C212.962 50.7516 211.938 111.296 210.53 125.504C209.762 130.624 204.386 134.848 198.882 134.336C192.61 133.696 188.898 128.704 189.154 123.584C190.818 104.128 191.074 55.2316 189.154 35.5196C188.386 30.1436 193.378 25.0236 198.498 24.5116C204.386 23.8716 209.762 27.8396 210.53 33.2156Z" fill="#915944"/>
<path d="M68.096 77.3756C68.096 80.0636 67.968 82.7516 67.712 85.3116H77.184V69.6956H67.84C67.968 72.2556 68.096 74.8156 68.096 77.3756ZM63.232 105.536C57.984 117.696 48.64 125.248 34.048 125.12C9.088 125.248 0 104.128 0 77.2476C0 50.4956 9.088 29.5036 34.048 29.3756C49.152 29.5036 58.368 37.5676 63.36 49.4716H76.8C76.544 44.0956 76.288 39.3596 75.904 35.5196C75.136 30.1436 80.128 25.0236 85.248 24.5116C91.136 23.8716 96.512 27.8396 97.28 33.2156C99.712 50.7516 98.688 111.296 97.28 125.504C96.512 130.624 91.136 134.848 85.632 134.336C79.36 133.696 75.648 128.704 75.904 123.584C76.288 118.976 76.544 112.704 76.8 105.536H63.232ZM46.592 77.5036C46.592 57.6636 42.88 49.8556 33.92 49.8556C25.728 49.8556 21.504 57.1516 21.504 77.5036C21.504 96.5756 24.96 104.64 33.92 104.64C43.008 104.64 46.592 96.5756 46.592 77.5036Z" fill="#915944"/>
<path d="M414.308 14.3994C418.551 14.3994 422.15 17.1539 423.418 20.9717C419.535 23.7454 416.945 28.2118 416.724 33.293C415.952 33.493 415.142 33.5996 414.308 33.5996C409.006 33.5994 404.708 29.3017 404.708 24C404.708 18.6982 409.006 14.3997 414.308 14.3994Z" fill="#249D65"/>
<path d="M432.708 0C440.661 0 447.108 6.44659 447.108 14.3994C447.108 17.6053 446.06 20.5661 444.288 22.959C441.374 19.9037 437.263 18 432.708 18C428.152 18 424.041 19.9034 421.127 22.959C419.356 20.5662 418.309 17.605 418.309 14.3994C418.309 6.44667 424.755 0.000121933 432.708 0Z" fill="#249D65"/>
<path d="M451.108 14.3994C456.41 14.3994 460.708 18.698 460.708 24C460.708 29.3018 456.41 33.5996 451.108 33.5996C450.274 33.5996 449.464 33.4932 448.691 33.293C448.47 28.2118 445.881 23.7454 441.998 20.9717C443.266 17.1539 446.865 14.3994 451.108 14.3994Z" fill="#249D65"/>
</svg>
