<svg width="24" height="24" viewBox="0 0 24 24" fill="none" xmlns="http://www.w3.org/2000/svg">
<path fill-rule="evenodd" clip-rule="evenodd" d="M12.817 14.3145C12.7638 14.3536 12.6995 14.3758 12.633 14.3779C12.5665 14.38 12.5009 14.3619 12.4452 14.3263C11.2172 13.5691 10.1268 12.6166 9.21906 11.508C8.10788 10.1858 7.36061 8.60719 7.04831 6.9224C6.79046 5.35865 7.03632 3.85556 7.83586 2.63235C8.15866 2.13547 8.56402 1.69492 9.03517 1.3289C10.0661 0.486104 11.3621 0.0168061 12.7051 0C14.0055 0.0205424 15.2508 0.517764 16.1951 1.39348C16.5577 1.719 16.8713 2.09328 17.1265 2.50514C17.98 3.87514 18.1639 5.63656 17.7882 7.42147C17.4733 8.83787 16.871 10.1779 16.0171 11.362C15.1631 12.5461 14.0749 13.5501 12.817 14.3145ZM12.4632 2.78109C13.0056 2.78109 13.5358 2.93858 13.9868 3.23363C14.4378 3.52868 14.7893 3.94805 14.9969 4.43871C15.2044 4.92937 15.2588 5.46927 15.1529 5.99015C15.0471 6.51102 14.7859 6.98948 14.4024 7.36501C14.0189 7.74054 13.5302 7.99628 12.9982 8.09989C12.4662 8.2035 11.9148 8.15032 11.4137 7.94709C10.9126 7.74385 10.4843 7.39968 10.183 6.9581C9.88162 6.51653 9.72078 5.99737 9.72078 5.46629C9.72078 4.75413 10.0097 4.07114 10.524 3.56757C11.0383 3.064 11.7359 2.78109 12.4632 2.78109Z" fill="#A2A4A6"/>
<path d="M0.935463 23.9319C0.860008 23.9694 0.777752 23.9919 0.6934 23.9982C0.609048 24.0045 0.524255 23.9944 0.44387 23.9686C0.363485 23.9428 0.289085 23.9017 0.224927 23.8477C0.160768 23.7938 0.108108 23.7279 0.0699599 23.654C0.02469 23.5659 0.000751032 23.4688 2.17841e-08 23.3702V10.3709C-3.62109e-05 10.2343 0.0451269 10.1013 0.128726 9.99194C0.212325 9.88257 0.329862 9.80266 0.463734 9.76417L5.17738 8.57618C5.29895 8.97963 5.44309 9.37622 5.60914 9.76417C6.35552 11.508 7.72792 13.1304 7.72792 13.1304V21.3411L0.935463 23.9319Z" fill="#A2A4A6"/>
<path d="M9.01918 14.4593C10.8272 16.0329 12.2612 16.785 12.633 16.785C13.0048 16.785 14.2469 16.0329 15.0457 15.436V23.8341L9.01918 21.2765V14.4593Z" fill="#A2A4A6"/>
<path d="M16.335 14.3341C18.3893 12.5257 18.8935 11.0226 19.4112 9.69371C19.929 8.36481 19.7631 8.68443 19.8869 8.16518L23.1345 7.49704C23.2931 7.44036 23.4681 7.44695 23.6217 7.51541C23.7754 7.58387 23.8955 7.70871 23.956 7.86303C23.985 7.93535 23.9999 8.01235 24 8.09006V20.3613C24.0005 20.487 23.9628 20.61 23.8916 20.7146C23.8204 20.8192 23.7189 20.9006 23.6002 20.9485L16.335 23.8039V14.3341Z" fill="#A2A4A6"/>
</svg>
